<?xml version="1.0" encoding="utf-8"?>
<!-- Generator: Adobe Illustrator 22.1.0, SVG Export Plug-In . SVG Version: 6.00 Build 0)  -->
<svg version="1.1" id="Layer_1" xmlns="http://www.w3.org/2000/svg" xmlns:xlink="http://www.w3.org/1999/xlink" x="0px" y="0px"
	 viewBox="0 0 774 323" style="enable-background:new 0 0 774 323;" xml:space="preserve">
<style type="text/css">
	.st0{fill:url(#SVGID_1_);}
	.st1{fill:url(#SVGID_2_);}
	.st2{fill:url(#SVGID_3_);}
	.st3{fill:url(#SVGID_4_);}
	.st4{fill:url(#SVGID_5_);}
	.st5{fill:url(#SVGID_6_);}
	.st6{fill:url(#SVGID_7_);}
	.st7{fill:url(#SVGID_8_);}
	.st8{fill:url(#SVGID_9_);}
	.st9{fill:url(#SVGID_10_);}
	.st10{fill:url(#SVGID_11_);}
	.st11{fill:#FFFFFF;}
	.st12{fill:url(#SVGID_12_);}
	.st13{fill:url(#SVGID_13_);}
	.st14{fill:url(#SVGID_14_);}
	.st15{fill:url(#SVGID_15_);}
</style>
<g>
	<linearGradient id="SVGID_1_" gradientUnits="userSpaceOnUse" x1="31.1236" y1="-8.4823" x2="31.1236" y2="83.8916">
		<stop  offset="0" style="stop-color:#5218FA"/>
		<stop  offset="0.9396" style="stop-color:#00FFFF"/>
	</linearGradient>
	<path class="st0" d="M31.1,57.3C15.8,57.3,4,44.6,4,30.2C4,15.9,15.8,3.1,31.1,3.1s27.1,12.8,27.1,27.1
		C58.2,44.6,46.4,57.3,31.1,57.3z"/>
	<linearGradient id="SVGID_2_" gradientUnits="userSpaceOnUse" x1="31.1246" y1="139.4033" x2="31.1246" y2="-59.4412">
		<stop  offset="0" style="stop-color:#4B4C4F"/>
		<stop  offset="2.788264e-02" style="stop-color:#48494C"/>
		<stop  offset="0.4576" style="stop-color:#212223"/>
		<stop  offset="0.7963" style="stop-color:#090909"/>
		<stop  offset="1" style="stop-color:#000000"/>
	</linearGradient>
	<rect x="7.8" y="75.9" class="st1" width="46.6" height="93.2"/>
	<linearGradient id="SVGID_3_" gradientUnits="userSpaceOnUse" x1="248.7446" y1="139.4033" x2="248.7446" y2="-59.4412">
		<stop  offset="0" style="stop-color:#4B4C4F"/>
		<stop  offset="2.788264e-02" style="stop-color:#48494C"/>
		<stop  offset="0.4576" style="stop-color:#212223"/>
		<stop  offset="0.7963" style="stop-color:#090909"/>
		<stop  offset="1" style="stop-color:#000000"/>
	</linearGradient>
	<path class="st2" d="M272,3.1V169h-46.6V3.1H272z"/>
	<linearGradient id="SVGID_4_" gradientUnits="userSpaceOnUse" x1="376.7003" y1="139.4033" x2="376.7003" y2="-59.4412">
		<stop  offset="0" style="stop-color:#4B4C4F"/>
		<stop  offset="2.788264e-02" style="stop-color:#48494C"/>
		<stop  offset="0.4576" style="stop-color:#212223"/>
		<stop  offset="0.7963" style="stop-color:#090909"/>
		<stop  offset="1" style="stop-color:#000000"/>
	</linearGradient>
	<path class="st3" d="M452.3,127.2c-13.1,25.8-38.6,41.8-73.1,41.8c-49.1,0-83.6-34.1-83.6-83c0-47.5,35.1-83,81.7-83
		c47.5,0,80.4,34.8,80.4,84.2c0,5.4-0.3,9.3-0.6,11.5H341.3c1.6,18.5,18.5,31.9,38,31.9c17.6,0,26.5-7.3,33.8-19.1L452.3,127.2z
		 M412.1,68.5c-2.2-16.9-16-29-35.1-29c-18.5,0-33.8,14-35.4,29H412.1z"/>
	<linearGradient id="SVGID_5_" gradientUnits="userSpaceOnUse" x1="530.9814" y1="139.4033" x2="530.9814" y2="-59.4412">
		<stop  offset="0" style="stop-color:#4B4C4F"/>
		<stop  offset="2.788264e-02" style="stop-color:#48494C"/>
		<stop  offset="0.4576" style="stop-color:#212223"/>
		<stop  offset="0.7963" style="stop-color:#090909"/>
		<stop  offset="1" style="stop-color:#000000"/>
	</linearGradient>
	<path class="st4" d="M580.6,51.9c-2.6-1.3-6.4-1.9-11.8-1.9c-25.8,0-41.2,19.1-41.2,50.1V169h-46.3V3.1h46v29.4
		c8.6-18.2,24.9-29.4,45.3-29.4c3.5,0,7,0.6,8,1V51.9z"/>
	<g>
		<linearGradient id="SVGID_6_" gradientUnits="userSpaceOnUse" x1="414.7024" y1="236.7655" x2="702.0692" y2="-57.3016">
			<stop  offset="0" style="stop-color:#5218FA"/>
			<stop  offset="0.9396" style="stop-color:#00FFFF"/>
		</linearGradient>
		<polygon class="st5" points="650.5,33.4 650.5,3.1 604.2,3.1 604.2,82.5 		"/>
		<linearGradient id="SVGID_7_" gradientUnits="userSpaceOnUse" x1="525.9504" y1="345.4787" x2="813.3172" y2="51.4116">
			<stop  offset="0" style="stop-color:#5218FA"/>
			<stop  offset="0.9396" style="stop-color:#00FFFF"/>
		</linearGradient>
		<polygon class="st6" points="675.7,124.5 709.9,169 765.7,169 705.6,92.7 		"/>
	</g>
	<linearGradient id="SVGID_8_" gradientUnits="userSpaceOnUse" x1="463.9176" y1="284.8593" x2="751.2844" y2="-9.2078">
		<stop  offset="0" style="stop-color:#5218FA"/>
		<stop  offset="0.9396" style="stop-color:#00FFFF"/>
	</linearGradient>
	<polygon class="st7" points="762.2,3.1 492.1,288.4 484.7,296.2 464.4,317.8 443.9,296.2 436.6,288.4 457,266.9 464.3,259.1 
		706.7,3.1 	"/>
	<g>
		<linearGradient id="SVGID_9_" gradientUnits="userSpaceOnUse" x1="421.8263" y1="243.7271" x2="709.1932" y2="-50.34">
			<stop  offset="0" style="stop-color:#5218FA"/>
			<stop  offset="0.9396" style="stop-color:#00FFFF"/>
		</linearGradient>
		<polygon class="st8" points="492.1,288.4 484.8,296.2 464.4,317.7 443.9,296.2 436.6,288.4 351.4,198.2 406.9,198.2 464.3,259.1 
			471.7,266.9 		"/>
	</g>
	<linearGradient id="SVGID_10_" gradientUnits="userSpaceOnUse" x1="139.9351" y1="139.4033" x2="139.9351" y2="-59.4412">
		<stop  offset="0" style="stop-color:#4B4C4F"/>
		<stop  offset="2.788264e-02" style="stop-color:#48494C"/>
		<stop  offset="0.4576" style="stop-color:#212223"/>
		<stop  offset="0.7963" style="stop-color:#090909"/>
		<stop  offset="1" style="stop-color:#000000"/>
	</linearGradient>
	<path class="st9" d="M201.8,115c-9.8,7.2-21.8,11.9-34.1,11.9c-24.6,0-42.8-16.9-42.8-40.8c0-23.9,18.2-40.8,42.8-40.8
		c11.8,0,23.3,3.8,34.1,11.5V13c-11.5-6.7-25.8-9.9-39.6-9.9c-49.5,0-84.2,35.4-84.2,83c0,49.5,35.1,83,83.6,83
		c13.6,0,27.5-2.8,40.2-10V115z"/>
</g>
</svg>
